<svg width="24" height="24" viewBox="0 0 24 24" fill="none" xmlns="http://www.w3.org/2000/svg">
<path d="M20.1395 13.3523L20.1441 13.3547C20.2168 12.9117 20.252 12.4594 20.252 12.0117C20.252 11.6109 20.2215 11.2078 20.1652 10.8141C20.2215 11.2055 20.2496 11.6016 20.2496 11.9977C20.2496 12.4523 20.2121 12.907 20.1395 13.3523ZM2.31992 9.33047C2.3082 9.32109 2.29883 9.31172 2.28711 9.3C2.30352 9.31641 2.31992 9.33281 2.33867 9.34922L3.87383 10.6594V10.657L2.31992 9.33047ZM14.8965 4.26797H14.8988L14.5355 2.30391C14.5309 2.28047 14.5262 2.25937 14.5191 2.23828C14.5215 2.25 14.5262 2.26406 14.5285 2.27578L14.8965 4.26797ZM16.1621 17.0766L16.898 16.4719L19.073 17.243C19.4715 16.7063 19.8066 16.1297 20.0715 15.518L18.3207 14.0203L18.4754 13.0805C18.534 12.7266 18.5645 12.3633 18.5645 12C18.5645 11.6367 18.534 11.2734 18.4754 10.9195L18.323 9.98438L20.0738 8.48672C19.8066 7.87734 19.4738 7.29844 19.0754 6.76172L16.9004 7.53281L16.1645 6.92813C15.6043 6.46875 14.9785 6.10781 14.3059 5.85469L13.4129 5.51953L12.9934 3.24609C12.3314 3.17109 11.6631 3.17109 11.0012 3.24609L10.5816 5.52422L9.69336 5.85938C9.02539 6.1125 8.4043 6.47344 7.84883 6.93047L7.11289 7.5375L4.92383 6.75937C4.52539 7.29609 4.19023 7.87266 3.92539 8.48438L5.69492 9.99609L5.54258 10.9336C5.48398 11.2828 5.45586 11.6414 5.45586 12C5.45586 12.3562 5.48633 12.7172 5.54258 13.0664L5.69492 14.0039L3.92539 15.5156C4.19258 16.125 4.52539 16.7039 4.92383 17.2406L7.11289 16.4625L7.84883 17.0695C8.4043 17.5266 9.02539 17.8875 9.69336 18.1406L10.5793 18.4805L10.9988 20.7586C11.6598 20.8336 12.3324 20.8336 12.991 20.7586L13.4105 18.4852L14.3035 18.15C14.9785 17.8969 15.602 17.5359 16.1621 17.0766ZM12.0113 15.8977C11.2965 15.8977 10.6238 15.7148 10.0355 15.3937C8.74883 14.6953 7.87461 13.3336 7.87461 11.7656C7.87461 9.4875 9.72148 7.64062 11.9996 7.64062C13.5676 7.64062 14.9293 8.51484 15.6277 9.80156C15.9488 10.3875 16.1316 11.0602 16.1316 11.7773C16.1316 14.0531 14.2871 15.8977 12.0113 15.8977ZM4.85586 19.05C4.72695 19.0945 4.59336 19.1039 4.4668 19.0781C4.60039 19.1063 4.74102 19.1016 4.87695 19.0547L6.78477 18.375C6.78242 18.3727 6.77773 18.3703 6.77539 18.368L4.85586 19.05ZM21.6746 9.33047L20.1395 10.643C20.1395 10.6477 20.1418 10.6547 20.1418 10.6594L21.6746 9.34922C21.841 9.20625 21.9348 9 21.9371 8.78672C21.9301 8.99297 21.8363 9.19219 21.6746 9.33047Z" fill="#5D8B2F" fill-opacity="0.15"/>
<path d="M21.933 15.1548C21.9447 15.2649 21.933 15.3774 21.8932 15.4853L21.8721 15.5462C21.4484 16.7269 20.8156 17.8217 20.0041 18.7782L19.9619 18.8274C19.8636 18.9437 19.7322 19.0272 19.5853 19.067C19.4383 19.1067 19.2828 19.1009 19.1393 19.0501L17.2338 18.3728C16.5348 18.9487 15.7452 19.4048 14.8971 19.7228L14.5291 21.7149C14.5013 21.8648 14.4286 22.0027 14.3206 22.1103C14.2126 22.2179 14.0744 22.2901 13.9244 22.3173L13.8611 22.329C13.2486 22.4397 12.6274 22.4954 12.0049 22.4954H12.0119C12.6377 22.4954 13.2635 22.4392 13.8729 22.329L13.9361 22.3173C14.0861 22.2901 14.2243 22.2179 14.3323 22.1103C14.4403 22.0027 14.5131 21.8648 14.5408 21.7149L14.9088 19.7251C15.7572 19.4063 16.54 18.954 17.2432 18.3774L19.1463 19.0548C19.2898 19.1055 19.4454 19.1114 19.5923 19.0717C19.7393 19.0319 19.8706 18.9483 19.9689 18.8321L20.0111 18.7829C20.8268 17.8196 21.4525 16.7345 21.8768 15.5556L21.8979 15.4946C21.9354 15.3845 21.9471 15.2673 21.933 15.1548Z" fill="#5D8B2F" fill-opacity="0.15"/>
<path d="M16.125 11.7656C16.125 11.0555 15.9445 10.3852 15.6281 9.80156C14.9297 8.51484 13.568 7.64062 12 7.64062C9.72188 7.64062 7.875 9.4875 7.875 11.7656C7.875 13.3336 8.74922 14.6953 10.0359 15.3937C10.6195 15.7102 11.2875 15.8906 12 15.8906C14.2781 15.8906 16.125 14.0437 16.125 11.7656ZM9.375 11.7656C9.375 11.0648 9.64922 10.4062 10.1437 9.90937C10.6406 9.4125 11.2992 9.14062 12 9.14062C12.7008 9.14062 13.3594 9.4125 13.8563 9.90937C14.1004 10.1528 14.294 10.4422 14.426 10.7607C14.5579 11.0793 14.6255 11.4208 14.625 11.7656C14.625 12.4664 14.3508 13.125 13.8563 13.6219C13.6128 13.866 13.3234 14.0597 13.0049 14.1916C12.6863 14.3235 12.3448 14.3912 12 14.3906C11.2992 14.3906 10.6406 14.1164 10.1437 13.6219C9.89959 13.3784 9.70597 13.0891 9.57404 12.7705C9.44211 12.4519 9.37446 12.1104 9.375 11.7656Z" fill="#5D8B2F"/>
<path d="M13.924 22.3173C14.074 22.2901 14.2122 22.2179 14.3202 22.1103C14.4282 22.0027 14.501 21.8648 14.5287 21.7149L14.8967 19.7228C15.7448 19.4048 16.5344 18.9487 17.2334 18.3728L19.1389 19.0501C19.2824 19.1009 19.438 19.1067 19.5849 19.067C19.7318 19.0272 19.8632 18.9437 19.9615 18.8274L20.0037 18.7782C20.8193 17.8149 21.4475 16.7274 21.8717 15.5462L21.8928 15.4853C21.9326 15.3774 21.9443 15.2649 21.9326 15.1548C21.9115 14.9696 21.8225 14.7938 21.6748 14.6649L20.1443 13.3548L20.1397 13.3524C20.2123 12.9071 20.2498 12.4524 20.2498 11.9978C20.2498 11.6017 20.2217 11.2032 20.1654 10.8142C20.1584 10.7626 20.149 10.711 20.142 10.6595C20.142 10.6548 20.1397 10.6478 20.1397 10.6431L21.6748 9.33057C21.8365 9.19229 21.9303 8.99307 21.9373 8.78682C21.9397 8.69307 21.9256 8.59697 21.8928 8.50557L21.8717 8.44463C21.4491 7.26344 20.8162 6.16846 20.0037 5.2126L19.9615 5.16338C19.863 5.04749 19.7316 4.96418 19.5847 4.92443C19.4379 4.88468 19.2824 4.89036 19.1389 4.94072L17.2334 5.61807C16.5303 5.0415 15.7475 4.58682 14.899 4.26807H14.8967L14.5287 2.27588C14.5264 2.26416 14.524 2.2501 14.5193 2.23838C14.4855 2.09668 14.4112 1.96785 14.3055 1.86758C14.1999 1.7673 14.0673 1.69989 13.924 1.67354L13.8607 1.66182C12.6397 1.4415 11.3553 1.4415 10.1342 1.66182L10.0709 1.67354C9.9209 1.70071 9.78271 1.77289 9.6747 1.88048C9.56669 1.98807 9.49398 2.12598 9.46622 2.27588L9.0959 4.27744C8.25424 4.59626 7.47043 5.0507 6.77559 5.62275L4.85606 4.94072C4.71254 4.88996 4.55698 4.88408 4.41003 4.92385C4.26309 4.96362 4.13173 5.04716 4.0334 5.16338L3.99122 5.2126C3.17968 6.16914 2.54694 7.26393 2.12325 8.44463L2.10215 8.50557C2.05331 8.64178 2.0448 8.78919 2.07764 8.93012C2.11049 9.07105 2.18328 9.19951 2.28731 9.3001C2.29903 9.30947 2.3084 9.32119 2.32012 9.33057L3.87403 10.6571V10.6595C3.80137 11.1001 3.76622 11.5478 3.76622 11.9954C3.76622 12.4454 3.80137 12.8954 3.87403 13.3337L2.32012 14.6603C2.20433 14.7594 2.12146 14.8914 2.08252 15.0388C2.04359 15.1861 2.05043 15.3419 2.10215 15.4853L2.12325 15.5462C2.54747 16.7274 3.17559 17.8173 3.99122 18.7782L4.0334 18.8274C4.14825 18.961 4.30059 19.0478 4.467 19.0782C4.59356 19.1017 4.72715 19.0946 4.85606 19.0501L6.77559 18.3681C6.77793 18.3704 6.78262 18.3728 6.78497 18.3751C7.48106 18.9446 8.25684 19.397 9.0959 19.7134L9.46622 21.7149C9.49398 21.8648 9.56669 22.0027 9.6747 22.1103C9.78271 22.2179 9.9209 22.2901 10.0709 22.3173L10.1342 22.329C10.7459 22.4392 11.3717 22.4954 11.9975 22.4954H12.0045C12.6279 22.4954 13.2537 22.4392 13.8607 22.329L13.924 22.3173ZM12.9912 20.7587C12.3293 20.8337 11.661 20.8337 10.999 20.7587L10.5795 18.4806L9.69356 18.1407C9.02559 17.8876 8.4045 17.5267 7.84903 17.0696L7.11309 16.4626L4.92403 17.2407C4.52559 16.704 4.19278 16.1251 3.92559 15.5157L5.69512 14.004L5.54278 13.0665C5.48653 12.7173 5.45606 12.3563 5.45606 12.0001C5.45606 11.6415 5.48418 11.2829 5.54278 10.9337L5.69512 9.99619L3.92559 8.48447C4.19043 7.87275 4.52559 7.29619 4.92403 6.75947L7.11309 7.5376L7.84903 6.93057C8.4045 6.47354 9.02559 6.1126 9.69356 5.85947L10.5818 5.52432L11.0014 3.24619C11.66 3.17119 12.3326 3.17119 12.9936 3.24619L13.4131 5.51963L14.3061 5.85478C14.9787 6.10791 15.6045 6.46885 16.1647 6.92822L16.9006 7.53291L19.0756 6.76182C19.474 7.29853 19.8068 7.87744 20.074 8.48682L18.3232 9.98447L18.4756 10.9196C18.5342 11.2735 18.5647 11.6368 18.5647 12.0001C18.5647 12.3634 18.5342 12.7267 18.4756 13.0806L18.3209 14.0204L20.0717 15.5181C19.8063 16.1295 19.4712 16.7083 19.0732 17.2431L16.8982 16.472L16.1623 17.0767C15.6022 17.536 14.9787 17.897 14.3037 18.1501L13.4107 18.4853L12.9912 20.7587Z" fill="#5D8B2F"/>
</svg>
