<svg width="72" height="72" viewBox="0 0 72 72" fill="none" xmlns="http://www.w3.org/2000/svg">
<circle cx="36" cy="36" r="35.5" fill="white" stroke="#5D8B2F"/>
<path d="M45.2856 37.5975C45.2686 37.5205 45.2366 37.4479 45.1919 37.3837C44.2333 35.3045 42.497 33.7059 40.3731 32.9471V25.1269H40.5014C40.9157 25.1269 41.3131 24.9588 41.6062 24.6595C41.8991 24.3603 42.0639 23.9542 42.0639 23.531V22.5959C42.0639 22.1727 41.8991 21.7666 41.6062 21.4674C41.3131 21.1681 40.9157 21 40.5014 21H34.7795C34.3649 21 33.9675 21.1681 33.6747 21.4674C33.3816 21.7666 33.217 22.1727 33.217 22.5959V23.5375C33.217 23.9607 33.3816 24.3666 33.6747 24.666C33.9675 24.9654 34.3649 25.1334 34.7795 25.1334H34.9045V32.9598C33.9972 33.2812 33.1513 33.7607 32.4044 34.3768L30.695 31.8234C30.9048 31.5286 31.0204 31.1747 31.026 30.8104C31.0314 30.4458 30.9269 30.0885 30.7263 29.787L30.1606 28.9444H30.1608C29.9002 28.5573 29.4998 28.2914 29.0475 28.2052C28.5953 28.1189 28.1279 28.2197 27.7482 28.4849L25.7544 29.8829C25.3747 30.1484 25.1138 30.5574 25.0294 31.0196C24.9451 31.4817 25.0439 31.9593 25.3046 32.3468L25.867 33.1894V33.1897C26.1923 33.6711 26.7286 33.9586 27.3014 33.9589C27.4504 33.9582 27.5987 33.9368 27.7419 33.8949L30.0824 37.3803V37.3995H30.0827C30.0426 37.4599 30.013 37.5267 29.9951 37.5974C29.3282 39.1296 29.1205 40.8292 29.3985 42.4818C29.6766 44.1345 30.428 45.6657 31.5576 46.8824C31.2023 46.9632 30.8847 47.1654 30.6575 47.4556C30.4301 47.7459 30.3067 48.1068 30.3075 48.4783V49.3721C30.3084 49.8035 30.4765 50.2171 30.7752 50.5222C31.074 50.8274 31.4789 50.999 31.9013 51H43.3762C43.7986 50.999 44.2035 50.8274 44.5023 50.5222C44.801 50.2171 44.9691 49.8035 44.9698 49.3721V48.4817C44.9714 48.1097 44.8481 47.7485 44.6207 47.4583C44.3933 47.1681 44.0754 46.9658 43.72 46.8858C44.8502 45.6705 45.6019 44.1402 45.88 42.4885C46.1582 40.8368 45.9501 39.138 45.2825 37.607L45.2856 37.5975ZM43.7231 49.3622C43.7266 49.4581 43.6913 49.5512 43.6259 49.62C43.5604 49.6887 43.4702 49.727 43.3763 49.7262H31.8983C31.7086 49.7262 31.5546 49.569 31.5546 49.3749V48.4814C31.5546 48.2873 31.7086 48.1301 31.8983 48.1301H34.6422C34.9873 48.1301 35.2669 47.8444 35.2669 47.4919C35.2669 47.1392 34.9873 46.8535 34.6422 46.8535H33.3921C32.1286 45.8982 31.2121 44.5408 30.7871 42.9949C30.3622 41.449 30.4531 39.8026 31.0452 38.3154C33.9326 37.6579 35.9045 37.9963 37.9856 38.3408C38.5419 38.4334 39.1137 38.5291 39.6949 38.6025H39.7731C40.1182 38.6246 40.4155 38.3567 40.437 38.004C40.4587 37.6515 40.1964 37.3478 39.8513 37.3259C39.2919 37.2556 38.7575 37.1662 38.1887 37.0705C36.3139 36.7514 34.4013 36.4321 31.8197 36.8567V36.8565C32.7533 35.4885 34.1212 34.4916 35.6916 34.035C35.9619 33.9575 36.1483 33.7058 36.1479 33.4189V25.1198H39.1165V33.4189C39.1106 33.7065 39.2935 33.9626 39.5633 34.0446C41.309 34.5466 42.7999 35.7129 43.7291 37.3034C43.4353 37.3513 43.1415 37.3895 42.851 37.4153V37.415C42.5056 37.4302 42.2377 37.7281 42.2526 38.0806C42.2672 38.4331 42.5588 38.7067 42.904 38.6918H42.9603C43.401 38.6502 43.8414 38.58 44.2916 38.497C44.8354 39.9686 44.8938 41.5812 44.4578 43.0895C44.0215 44.5979 43.1152 45.9197 41.8759 46.8534H37.6384C37.2932 46.8534 37.0136 47.139 37.0136 47.4918C37.0136 47.8443 37.2933 48.1299 37.6384 48.1299H43.376C43.5658 48.1299 43.7197 48.2872 43.7197 48.4812L43.7231 49.3622ZM26.9072 32.4452L26.3448 31.6057V31.606C26.2697 31.4987 26.2415 31.3648 26.2666 31.2357C26.2909 31.1063 26.3639 30.9916 26.4698 30.9164L28.4636 29.5183C28.6846 29.3644 28.986 29.4214 29.1385 29.646L29.7042 30.4886V30.4888C29.7855 30.6021 29.8165 30.7449 29.7897 30.8827C29.7631 31.0203 29.6809 31.1402 29.5635 31.2133L27.5666 32.6114C27.3448 32.7542 27.052 32.6921 26.9041 32.4709L26.9072 32.4452ZM29.7198 32.6176L31.4791 35.235C31.2253 35.5259 30.9924 35.8354 30.7822 36.1607L28.8386 33.269L29.7198 32.6176ZM34.4666 23.5337V22.5954C34.4666 22.4192 34.6067 22.2761 34.7792 22.2761H40.5011C40.584 22.2761 40.6633 22.3098 40.7219 22.3696C40.7805 22.4295 40.8135 22.5108 40.8135 22.5954V23.5371C40.8135 23.6217 40.7805 23.7027 40.7219 23.7626C40.6633 23.8225 40.584 23.8561 40.5011 23.8561H34.7792C34.6957 23.8561 34.6158 23.822 34.557 23.7616C34.4984 23.7011 34.4659 23.619 34.4666 23.5337Z" fill="#5D8B2F"/>
</svg>
