<svg width="233" height="17" viewBox="0 0 233 17" fill="none" xmlns="http://www.w3.org/2000/svg">
<path d="M9.73903 2.44559C10.6102 2.50154 11.4116 2.54951 12.248 2.62943L15.7326 2.95711C17.6448 3.13288 19.5403 3.43742 21.4038 3.86825C23.3979 4.33521 25.3249 5.01663 27.1447 5.89835C27.5019 6.07419 27.8678 6.25801 28.2337 6.41786L29.4446 6.91339C30.0196 7.12119 30.5945 7.321 31.1869 7.48885C31.8683 7.67985 32.5643 7.82412 33.269 7.92045C33.8875 7.97639 34.4973 8.00836 35.1159 8.01635C35.6986 8.01118 36.2804 7.97381 36.8582 7.90446C37.6522 7.78919 38.4378 7.62905 39.2103 7.42492C40.0186 7.19911 40.8126 6.93228 41.5886 6.62567C42.9237 6.08388 44.2213 5.46728 45.4739 4.7794C46.0547 4.44904 46.6355 4.11336 47.2162 3.77235C47.9132 3.35674 48.6014 2.93314 49.3157 2.55749C49.8721 2.24843 50.4547 1.98114 51.0581 1.75824C51.4416 1.62497 51.8345 1.5155 52.2341 1.43056C52.6392 1.35906 53.0501 1.31895 53.4625 1.31066C53.7109 1.31176 53.9587 1.33316 54.2029 1.37461C54.5567 1.42278 54.9061 1.49491 55.2483 1.59041C55.7841 1.76276 56.3005 1.98223 56.7903 2.24578L59.8132 3.70841C61.0851 4.32383 62.3744 4.93125 63.6898 5.46675C64.5 5.76247 65.3102 6.02622 66.1465 6.266C67.2407 6.55361 68.3556 6.76995 69.483 6.91339C70.5638 7.0412 71.6516 7.11325 72.7412 7.12919C73.9775 7.12419 75.2118 7.03873 76.4349 6.87343C77.9856 6.67362 79.5188 6.38589 81.0346 6.07419C82.4398 5.77268 83.8174 5.37186 85.1552 4.87531C86.4881 4.33982 87.7687 3.75637 89.0667 3.10098C90.5077 2.354 92.0108 1.7126 93.5619 1.18278C94.1799 0.99341 94.8116 0.843855 95.4523 0.735205C96.1953 0.602018 96.9516 0.540412 97.7086 0.551382C98.468 0.579577 99.2217 0.684104 99.9562 0.863088C100.709 1.05667 101.436 1.32466 102.125 1.66234C103.766 2.49269 105.323 3.45561 106.777 4.53963C107.648 5.15505 108.52 5.81043 109.391 6.44183C110.123 6.96134 110.854 7.48086 111.63 7.95241C112.436 8.44273 113.287 8.86794 114.173 9.22322C114.583 9.37508 114.992 9.51094 115.419 9.63882C115.972 9.79119 116.537 9.90343 117.109 9.97451C117.336 9.98645 117.562 9.98645 117.789 9.97451C117.951 9.98646 118.114 9.98646 118.277 9.97451C118.733 9.8864 119.182 9.76616 119.618 9.61485C121.185 8.90038 122.676 8.0521 124.07 7.08123C124.741 6.59369 125.394 6.08218 126.021 5.54668L127.337 4.41974C128.415 3.38501 129.555 2.40577 130.752 1.4865C131.264 1.12838 131.813 0.8153 132.389 0.551382C132.717 0.408517 133.058 0.293472 133.409 0.207699L133.757 0.14377L134.471 0.0478516H134.829H134.933C135.149 0.0482494 135.365 0.0642822 135.578 0.0958045C135.991 0.149936 136.398 0.232773 136.797 0.343582C137.587 0.564954 138.361 0.831902 139.115 1.14283C139.733 1.3906 140.343 1.66234 140.962 1.94208C141.388 2.1339 141.833 2.30173 142.242 2.51752L144.22 3.5086C144.551 3.67644 144.882 3.8283 145.204 4.01213L146.99 5.05115C147.434 5.30691 147.861 5.55468 148.332 5.8504L151.642 7.88048C153.981 9.39969 156.465 10.7212 159.064 11.8288C159.648 12.0526 160.232 12.2524 160.807 12.4282C161.546 12.6462 162.304 12.8092 163.072 12.9157C163.394 12.9157 163.725 12.9717 164.047 12.9877C164.527 13.0078 165.008 12.9917 165.485 12.9397C166.171 12.8386 166.845 12.6753 167.497 12.4522C168.201 12.1415 168.875 11.7752 169.509 11.3572C170.496 10.5933 171.43 9.7738 172.306 8.90352C172.741 8.47992 173.177 8.05632 173.639 7.63272C174.177 7.12903 174.745 6.65149 175.338 6.20206C175.812 5.8263 176.336 5.50677 176.897 5.25096C177.22 5.10257 177.555 4.97699 177.899 4.87531C178.244 4.78139 178.601 4.73031 178.962 4.72346C179.189 4.73288 179.416 4.75423 179.641 4.7874C179.969 4.85612 180.287 4.95797 180.591 5.0911C180.908 5.22249 181.202 5.3977 181.462 5.61062C181.706 5.82642 181.95 6.05819 182.185 6.28997C182.629 6.74555 183.056 7.24109 183.448 7.72063L184.424 8.84758C184.807 9.28716 185.208 9.71076 185.6 10.1424C186.382 10.9953 187.258 11.772 188.213 12.4602C188.933 12.9444 189.704 13.362 190.513 13.707C191.249 13.9588 192.011 14.1435 192.787 14.2585C193.884 14.3704 194.991 14.3704 196.089 14.2585C197.826 13.983 199.524 13.5272 201.15 12.8998C202.629 12.2939 204.066 11.6052 205.453 10.8377C206.177 10.4461 206.873 10.0385 207.562 9.58288L209.609 8.16821C210.306 7.71264 210.994 7.25707 211.717 6.84946C212.454 6.42486 213.219 6.04313 214.008 5.70653C215.454 5.05759 217.042 4.71869 218.652 4.71546C219.029 4.72505 219.405 4.76248 219.775 4.82736C220.164 4.88074 220.548 4.95818 220.925 5.05914C221.269 5.14852 221.604 5.26345 221.927 5.40281L222.99 5.83441C224.534 6.47239 226.014 7.23184 227.415 8.10427C228.68 8.88902 229.849 9.79749 230.9 10.8137C231.381 11.2762 231.834 11.7618 232.259 12.2684C232.461 12.5102 232.62 12.78 232.729 13.0676L232.851 13.4033C232.904 13.6431 232.956 13.8748 232.999 14.1146C233.042 14.2669 233.042 14.4266 232.999 14.5789C232.957 14.7311 232.873 14.8711 232.756 14.9858C232.633 15.0939 232.482 15.1713 232.317 15.2105C232.152 15.2497 231.979 15.2494 231.815 15.2096L231.118 15.0258C230.791 14.933 230.476 14.8098 230.177 14.6581C230.067 14.6002 229.971 14.5229 229.894 14.4308C229.817 14.3387 229.761 14.2335 229.729 14.1213C229.696 14.0091 229.688 13.8921 229.706 13.7771C229.723 13.6621 229.764 13.5513 229.828 13.4512C229.887 13.3493 229.968 13.2602 230.067 13.1898C230.167 13.1195 230.281 13.0696 230.403 13.0436C229.549 12.136 228.601 11.3062 227.572 10.566C225.951 9.45932 224.197 8.52615 222.345 7.78458L221.082 7.31301C220.548 7.13733 219.997 7.01149 219.436 6.93738C218.946 6.90143 218.453 6.90143 217.963 6.93738C217.632 6.98533 217.31 7.04927 216.988 7.1212C216.513 7.24156 216.047 7.39109 215.594 7.56878C214.714 7.95204 213.864 8.38998 213.05 8.87954C212.083 9.43102 211.203 10.0944 210.28 10.7018C209.356 11.3093 208.459 11.8927 207.536 12.4682C206.612 13.0436 205.654 13.5551 204.687 14.0667C202.801 15.0313 200.806 15.8032 198.737 16.3685C196.609 16.9681 194.367 17.1426 192.16 16.88C191.134 16.7551 190.131 16.5024 189.18 16.1287C188.256 15.7609 187.38 15.2999 186.567 14.754C185.688 14.1554 184.874 13.4809 184.136 12.7399C183.735 12.3483 183.37 11.9407 183.004 11.5171C182.472 10.9176 181.95 10.3102 181.436 9.70277C180.818 8.92758 180.149 8.18819 179.432 7.48885L179.266 7.40093L179.023 7.337H178.944C178.796 7.36313 178.65 7.40056 178.509 7.44889C178.159 7.6002 177.821 7.77379 177.498 7.9684C176.595 8.65695 175.742 9.39918 174.945 10.1903C173.928 11.1993 172.855 12.1597 171.731 13.0676C171.236 13.4478 170.712 13.795 170.163 14.1066C169.52 14.4706 168.841 14.7758 168.133 15.0178C167.482 15.2318 166.807 15.3792 166.121 15.4573C165.317 15.5732 164.502 15.6054 163.69 15.5533C163.012 15.5034 162.337 15.418 161.669 15.2975C160.866 15.1448 160.077 14.9364 159.308 14.6741C157.868 14.1886 156.473 13.598 155.135 12.9077C153.167 11.9167 151.311 10.7498 149.447 9.60686C148.576 9.05538 147.704 8.47991 146.781 7.95241L143.671 6.14612C143.549 6.07418 143.418 6.01823 143.296 5.95429L142.234 5.4188L140.622 4.61955C140.509 4.5636 140.395 4.52365 140.282 4.47569L139.15 3.98015C138.514 3.7084 137.878 3.43666 137.233 3.1809C136.583 2.94689 135.916 2.75199 135.238 2.59745H134.829C134.707 2.59745 134.593 2.59745 134.48 2.59745C134.2 2.64974 133.923 2.71916 133.653 2.80525C133.185 3.02701 132.737 3.28084 132.311 3.56455C131.004 4.56361 129.863 5.73051 128.617 6.76154C127.842 7.43291 127.067 8.0803 126.239 8.69572C125.494 9.26517 124.718 9.79872 123.913 10.2942C123.042 10.8137 122.171 11.2533 121.3 11.6929C120.489 12.1046 119.603 12.3755 118.686 12.4921C118.277 12.5241 117.866 12.5241 117.458 12.4921C116.036 12.3865 114.644 12.0651 113.337 11.541C112.406 11.1809 111.508 10.7505 110.654 10.2542C109.476 9.54923 108.347 8.7778 107.274 7.94442L105.323 6.51376L103.781 5.43479C102.681 4.64829 101.492 3.973 100.235 3.42068C99.6136 3.20864 98.972 3.05076 98.3184 2.94912C97.9961 2.94912 97.6824 2.90116 97.3601 2.89317C97.0687 2.8949 96.7778 2.9136 96.489 2.94912C95.4848 3.10626 94.501 3.35802 93.5532 3.70042C92.7343 4.02811 91.9241 4.38777 91.1226 4.77141C90.6261 5.01118 90.1469 5.27494 89.6591 5.5227C89.1712 5.77047 88.6834 5.98627 88.1955 6.21006C87.246 6.63366 86.2877 7.0093 85.312 7.39294C84.2823 7.75817 83.2291 8.06512 82.1584 8.31207C79.9268 8.84634 77.6558 9.231 75.3634 9.46299C74.2068 9.58418 73.0423 9.62959 71.8787 9.59886C70.7113 9.56079 69.5476 9.45669 68.3941 9.28715C66.3498 9.0129 64.3528 8.4971 62.4528 7.7526C61.2332 7.27305 60.0571 6.72956 58.8811 6.1541C57.4698 5.49872 56.0759 4.79538 54.6385 4.17996C54.351 4.09204 54.0635 4.02811 53.7673 3.96417C53.5904 3.95218 53.4128 3.95218 53.2359 3.96417C52.8233 4.03615 52.4182 4.14044 52.025 4.27588C50.7648 4.89613 49.5512 5.59303 48.3923 6.36192C47.1527 7.13009 45.864 7.82935 44.5331 8.45594C43.2045 9.07558 41.8306 9.6097 40.4212 10.0544C38.8335 10.535 37.1789 10.8042 35.5079 10.8537C34.0421 10.8968 32.5768 10.757 31.1521 10.4381C29.9285 10.151 28.7404 9.74925 27.6065 9.2392C27.1099 9.0314 26.6221 8.83159 26.1429 8.59181L25.1672 8.16821C24.7055 7.94442 24.2177 7.74461 23.7298 7.55279C21.3783 6.73403 18.9268 6.18115 16.4295 5.90634C15.0879 5.74649 13.7289 5.65857 12.3699 5.54668C11.2026 5.44278 10.0265 5.39482 8.88528 5.32289C6.49831 5.17903 4.11133 5.04316 1.71564 5.05115C1.26972 5.05115 0.842068 4.88863 0.526756 4.59934C0.211444 4.31006 0.0343101 3.9177 0.0343101 3.5086C0.0343101 3.09949 0.211444 2.70713 0.526756 2.41785C0.842068 2.12857 1.26972 1.96605 1.71564 1.96605C3.53636 1.96605 5.33968 2.1259 7.15169 2.24578L9.73903 2.44559Z" fill="#5D8B2F"/>
</svg>
