<svg width="72" height="72" viewBox="0 0 72 72" fill="none" xmlns="http://www.w3.org/2000/svg">
<circle cx="36" cy="36" r="35.5" fill="white" stroke="#5D8B2F"/>
<path d="M36.4283 21.291C36.3525 21.1139 36.1849 21 36.0003 21C35.8156 21 35.6481 21.1139 35.5722 21.291C34.2338 24.4118 33.5264 28.0389 33.5264 31.7802C33.5264 35.4822 34.2194 39.0719 35.5306 42.1704V50.5055C35.5306 50.7786 35.7409 51 36.0003 51C36.2597 51 36.4701 50.7786 36.4701 50.5055V42.1704C37.7812 39.0719 38.4742 35.4821 38.4742 31.7802C38.4741 28.0389 37.7667 24.4118 36.4283 21.291ZM36.0003 40.7853C34.9941 38.0463 34.4658 34.9581 34.4658 31.7802C34.4658 28.6022 34.9941 25.5141 36.0003 22.775C37.0064 25.5141 37.5347 28.6023 37.5347 31.7802C37.5347 34.9581 37.0064 38.0462 36.0003 40.7853Z" fill="#5D8B2F"/>
<path d="M34.75 43.8735C32.9192 42.6408 30.6901 41.7626 28.3036 41.3337C25.9183 40.9051 23.5191 40.9511 21.3655 41.467C21.1809 41.5112 21.0395 41.6678 21.007 41.8642C20.9745 42.0606 21.0571 42.2583 21.2167 42.3657C23.0475 43.5984 25.2766 44.4767 27.6631 44.9055C28.7426 45.0995 29.8249 45.1963 30.886 45.1963C32.1696 45.1963 33.4223 45.0547 34.6011 44.7723C34.7857 44.728 34.9271 44.5714 34.9596 44.3751C34.9922 44.1787 34.9096 43.9809 34.75 43.8735ZM27.8212 43.9306C26.0137 43.6059 24.305 43.0117 22.8112 42.1939C24.5098 41.945 26.3302 41.9824 28.1457 42.3087C29.9531 42.6334 31.6619 43.2276 33.1557 44.0454C31.4569 44.2943 29.6366 44.2569 27.8212 43.9306Z" fill="#5D8B2F"/>
<path d="M34.9189 46.1208C34.8491 45.9672 34.7091 45.8621 34.5484 45.8427C33.1717 45.6769 31.7888 45.8973 30.5494 46.4803C29.3023 47.0669 28.2772 47.9842 27.5848 49.1331C27.4982 49.2768 27.4879 49.4575 27.5576 49.6112C27.6274 49.7649 27.7673 49.8699 27.9281 49.8893C28.2256 49.9251 28.5233 49.9429 28.8198 49.9429C29.8957 49.9429 30.9555 49.7086 31.927 49.2517C33.1741 48.6651 34.1992 47.7477 34.8916 46.5989C34.9783 46.4551 34.9886 46.2745 34.9189 46.1208ZM31.5438 48.3487C30.7122 48.7399 29.8058 48.9447 28.8836 48.9537C29.4317 48.2972 30.128 47.762 30.9328 47.3834C31.7643 46.9922 32.6707 46.7874 33.5929 46.7784C33.0448 47.4349 32.3486 47.9701 31.5438 48.3487Z" fill="#5D8B2F"/>
<path d="M34.9449 42.4565C34.0824 39.4133 32.5186 36.3848 30.4225 33.6984C28.3257 31.0111 25.8237 28.8296 23.187 27.3896C23.0196 27.2981 22.8166 27.3209 22.6713 27.4475C22.526 27.574 22.4667 27.7797 22.5206 27.9699C23.383 31.013 24.9468 34.0415 27.0429 36.7279C29.1397 39.4152 31.6418 41.5968 34.2784 43.0367C34.3467 43.074 34.4209 43.0923 34.4946 43.0923C34.6018 43.0923 34.7081 43.0537 34.7941 42.9788C34.9394 42.8523 34.9987 42.6466 34.9449 42.4565ZM27.7689 36.1001C26.0271 33.8679 24.6683 31.3942 23.7973 28.882C25.9378 30.237 27.9595 32.0999 29.6966 34.3261C31.4384 36.5584 32.797 39.032 33.6681 41.5442C31.5276 40.1893 29.5059 38.3263 27.7689 36.1001Z" fill="#5D8B2F"/>
<path d="M50.9939 41.8641C50.9613 41.6677 50.8199 41.5111 50.6353 41.4669C48.4816 40.9511 46.0825 40.9051 43.6972 41.3337C41.3107 41.7625 39.0816 42.6408 37.2509 43.8735C37.0914 43.9809 37.0087 44.1786 37.0412 44.375C37.0737 44.5714 37.2151 44.7281 37.3997 44.7722C38.5788 45.0546 39.8312 45.1962 41.1148 45.1962C42.1758 45.1962 43.2583 45.0995 44.3377 44.9055C46.7242 44.4766 48.9533 43.5984 50.7841 42.3657C50.9438 42.2583 51.0264 42.0605 50.9939 41.8641ZM44.1798 43.9305C42.3644 44.2568 40.544 44.2943 38.8454 44.0453C40.3392 43.2275 42.0479 42.6334 43.8554 42.3085C45.6708 41.9823 47.4912 41.9449 49.1898 42.1938C47.6959 43.0117 45.9872 43.6057 44.1798 43.9305Z" fill="#5D8B2F"/>
<path d="M44.4142 49.1331C43.7219 47.9843 42.6967 47.067 41.4495 46.4803C40.2102 45.8974 38.8275 45.6768 37.4506 45.8427C37.2899 45.862 37.1499 45.9671 37.0801 46.1208C37.0103 46.2746 37.0206 46.4551 37.1073 46.599C37.7997 47.7477 38.8248 48.665 40.0719 49.2517C41.0436 49.7088 42.1032 49.943 43.1792 49.9429C43.4756 49.9429 43.7735 49.9251 44.0709 49.8893C44.2316 49.87 44.3716 49.7649 44.4414 49.6112C44.5112 49.4575 44.5009 49.2769 44.4142 49.1331ZM40.4553 48.3486C39.6505 47.97 38.9543 47.4348 38.4062 46.7783C39.3284 46.7873 40.2348 46.9921 41.0663 47.3833C41.8711 47.7619 42.5674 48.2971 43.1155 48.9536C42.1934 48.9446 41.2868 48.7398 40.4553 48.3486Z" fill="#5D8B2F"/>
<path d="M49.3273 27.4474C49.182 27.321 48.979 27.2981 48.8116 27.3896C46.175 28.8295 43.673 31.011 41.5761 33.6984C39.48 36.3848 37.9162 39.4132 37.0538 42.4564C36.9999 42.6466 37.0592 42.8523 37.2045 42.9788C37.2906 43.0537 37.3969 43.0923 37.504 43.0923C37.5778 43.0923 37.652 43.0741 37.7202 43.0368C40.3569 41.5969 42.8588 39.4153 44.9557 36.7279C47.0519 34.0415 48.6157 31.0131 49.4781 27.9699C49.5319 27.7797 49.4726 27.5739 49.3273 27.4474ZM44.2298 36.1001C42.4927 38.3263 40.471 40.1893 38.3305 41.5441C39.2015 39.0319 40.5603 36.5584 42.3021 34.326C44.0392 32.0998 46.0608 30.2368 48.2013 28.882C47.3303 31.3942 45.9716 33.8678 44.2298 36.1001Z" fill="#5D8B2F"/>
</svg>
