<svg width="72" height="72" viewBox="0 0 72 72" fill="none" xmlns="http://www.w3.org/2000/svg">
<circle cx="36" cy="36" r="35.5" fill="white" stroke="#5D8B2F"/>
<path fill-rule="evenodd" clip-rule="evenodd" d="M24.1394 23.1289C23.365 23.6005 22.7647 24.608 22.7647 26.2452V47.1951C22.7647 48.3008 23.6942 49.235 24.8611 49.235H35.8654V29.5204C35.8654 28.9773 35.6569 28.3232 35.2743 27.7162C34.892 27.1097 34.3877 26.6323 33.8893 26.3883L27.6213 23.3107C27.6212 23.3107 27.6214 23.3108 27.6213 23.3107C26.1165 22.5742 24.9181 22.6548 24.1394 23.1289ZM23.2216 21.6217C24.6628 20.7441 26.5281 20.8108 28.3972 21.7258L34.6652 24.8033C34.6655 24.8034 34.665 24.8032 34.6652 24.8033C35.5218 25.2229 36.2531 25.9597 36.7672 26.7753C37.281 27.5906 37.6301 28.567 37.6301 29.5204V50.1174C37.6301 50.6047 37.2351 50.9997 36.7478 50.9997H24.8611C22.7527 50.9997 21 49.3082 21 47.1951V26.2452C21 24.1837 21.7761 22.5018 23.2216 21.6217Z" fill="#5D8B2F"/>
<path fill-rule="evenodd" clip-rule="evenodd" d="M36.1914 33.0833C36.3983 32.9158 36.6698 32.8506 36.9302 32.906L37.6034 33.0493L43.9538 34.4746L43.9561 34.4752L46.818 35.1096C46.8182 35.1096 46.8177 35.1095 46.818 35.1096C47.8279 35.3315 48.8642 35.726 49.6586 36.5271C50.4643 37.3396 50.9256 38.4716 50.9817 39.9743C50.9982 40.1072 50.9981 40.228 50.998 40.3029C50.998 40.3087 50.9979 40.3142 50.9979 40.3195V45.6558C50.9979 47.2993 50.6187 48.6874 49.6525 49.6537C48.6862 50.6199 47.2981 50.9991 45.6546 50.9991H36.7466C36.2593 50.9991 35.8643 50.6041 35.8643 50.1168V33.7691C35.8643 33.5028 35.9845 33.2508 36.1914 33.0833ZM37.6289 34.8637L43.5696 36.197L43.5719 36.1975L46.4393 36.8331C47.2926 37.0206 47.9508 37.311 48.4056 37.7696C48.8405 38.2083 49.1826 38.8956 49.2196 40.0788C49.2208 40.1177 49.2246 40.1565 49.2309 40.1949C49.2311 40.1966 49.2317 40.2028 49.2322 40.2153C49.2331 40.2386 49.2333 40.2663 49.2333 40.3195V45.6558C49.2333 47.0615 48.9066 47.9039 48.4047 48.4059C47.9027 48.9078 47.0603 49.2345 45.6546 49.2345H37.6289V34.8637Z" fill="#5D8B2F"/>
<path fill-rule="evenodd" clip-rule="evenodd" d="M25.9844 31.7613C25.9844 31.2739 26.3794 30.8789 26.8667 30.8789H31.7654C32.2527 30.8789 32.6477 31.2739 32.6477 31.7613C32.6477 32.2486 32.2527 32.6436 31.7654 32.6436H26.8667C26.3794 32.6436 25.9844 32.2486 25.9844 31.7613Z" fill="#5D8B2F"/>
<path fill-rule="evenodd" clip-rule="evenodd" d="M25.9844 37.4116C25.9844 36.9243 26.3794 36.5293 26.8667 36.5293H31.7654C32.2527 36.5293 32.6477 36.9243 32.6477 37.4116C32.6477 37.8989 32.2527 38.294 31.7654 38.294H26.8667C26.3794 38.294 25.9844 37.8989 25.9844 37.4116Z" fill="#5D8B2F"/>
<path fill-rule="evenodd" clip-rule="evenodd" d="M36.8603 33.2228C37.0695 33.0554 37.3434 32.992 37.6049 33.0507L43.9576 34.4766C44.3604 34.567 44.6467 34.9246 44.6467 35.3375V39.8832C44.6467 42.1211 42.8259 43.9419 40.588 43.9419C38.3502 43.9419 36.5293 42.1211 36.5293 39.8832V33.9116C36.5293 33.6437 36.6511 33.3902 36.8603 33.2228ZM38.294 35.014V39.8832C38.294 41.1465 39.3248 42.1773 40.588 42.1773C41.8512 42.1773 42.882 41.1465 42.882 39.8832V36.0437L38.294 35.014Z" fill="#5D8B2F"/>
<path fill-rule="evenodd" clip-rule="evenodd" d="M43.2109 34.6474C43.4196 34.4799 43.693 34.4161 43.9542 34.474L46.8183 35.109C46.8186 35.109 46.8181 35.1089 46.8183 35.109C47.8282 35.3309 48.8646 35.7254 49.659 36.5265C50.4734 37.3478 50.936 38.4958 50.9837 40.0231C50.9845 40.0472 50.9843 40.0713 50.983 40.0954C50.8747 42.2254 49.1087 43.9399 46.9396 43.9399C44.7017 43.9399 42.8809 42.1191 42.8809 39.8812V35.3355C42.8809 35.0679 43.0023 34.8148 43.2109 34.6474ZM44.6455 36.4348V39.8812C44.6455 41.1444 45.6763 42.1752 46.9396 42.1752C48.147 42.1752 49.1404 41.2259 49.2186 40.0402C49.1756 38.8802 48.8362 38.203 48.4059 37.769C47.9512 37.3104 47.293 37.02 46.4397 36.8325L44.6455 36.4348Z" fill="#5D8B2F"/>
</svg>
