<svg
                        className="d-block"
                        width="12"
                        height="15"
                        viewBox="0 0 12 15"
                        fill="none"
                        xmlns="http://www.w3.org/2000/svg"
                      >
                        <g clipPath="url(#clip0_4_585)">
                          <path
                            opacity="0.3"
                            d="M1.5 13.5716H10.5V6.42871H1.5V13.5716ZM6 8.57157C6.825 8.57157 7.5 9.21443 7.5 10.0001C7.5 10.7859 6.825 11.4287 6 11.4287C5.175 11.4287 4.5 10.7859 4.5 10.0001C4.5 9.21443 5.175 8.57157 6 8.57157Z"
                            fill="#5D8B2F"
                          />
                          <path
                            d="M10.5 5H9.75V3.57143C9.75 1.6 8.07 0 6 0C3.93 0 2.25 1.6 2.25 3.57143V5H1.5C0.675 5 0 5.64286 0 6.42857V13.5714C0 14.3571 0.675 15 1.5 15H10.5C11.325 15 12 14.3571 12 13.5714V6.42857C12 5.64286 11.325 5 10.5 5ZM3.75 3.57143C3.75 2.38571 4.755 1.42857 6 1.42857C7.245 1.42857 8.25 2.38571 8.25 3.57143V5H3.75V3.57143ZM10.5 13.5714H1.5V6.42857H10.5V13.5714ZM6 11.4286C6.825 11.4286 7.5 10.7857 7.5 10C7.5 9.21429 6.825 8.57143 6 8.57143C5.175 8.57143 4.5 9.21429 4.5 10C4.5 10.7857 5.175 11.4286 6 11.4286Z"
                            fill="#5D8B2F"
                          />
                        </g>
                        <defs>
                          <clipPath id="clip0_4_585">
                            <rect  width="12"
                        height="15" fill="white" />
                          </clipPath>
                        </defs>
                      </svg>