<svg width="17" height="16" viewBox="0 0 17 16" fill="none" xmlns="http://www.w3.org/2000/svg">
<path d="M8.93521 1.3775L8.93475 1.37656C8.58989 0.677575 8.22068 0.5 7.99815 0.5C7.77476 0.5 7.40364 0.678617 7.05485 1.37796C7.05477 1.37812 7.0547 1.37827 7.05462 1.37843L5.64788 4.21485C5.50744 4.50279 5.26998 4.75345 5.02151 4.93918C4.77257 5.12526 4.4663 5.28077 4.15552 5.33398L4.15375 5.33428L1.602 5.76169C1.60193 5.7617 1.60187 5.76171 1.6018 5.76172C1.60178 5.76173 1.60176 5.76173 1.60174 5.76173C0.874584 5.88397 0.596675 6.1798 0.525806 6.40354C0.454332 6.62919 0.512319 7.03581 1.03413 7.56188L3.01813 9.56206C3.26065 9.80655 3.42563 10.1369 3.51713 10.4591C3.60873 10.7817 3.64152 11.1483 3.56723 11.4825L3.5665 11.4858L3.56649 11.4858L2.99849 13.9618L2.99847 13.9619C2.7845 14.8941 2.98758 15.2911 3.14942 15.4101C3.30878 15.5273 3.74174 15.6033 4.55844 15.1146L4.55891 15.1143L6.95091 13.6868L6.95416 13.6849L6.95417 13.6849C7.26846 13.5005 7.64907 13.4226 8.00215 13.4226C8.35469 13.4226 8.73515 13.5003 9.04738 13.6868C9.04745 13.6868 9.04751 13.6869 9.04758 13.6869L11.439 15.1141C12.2621 15.6043 12.6945 15.5288 12.852 15.413C13.0116 15.2957 13.2143 14.9005 12.9998 13.9618L8.93521 1.3775ZM8.93521 1.3775L10.3424 4.21473C10.4829 4.50288 10.7206 4.7538 10.9707 4.93988C11.2216 5.12648 11.53 5.28143 11.8443 5.33424L11.8445 5.33428L14.3963 5.76169C14.3964 5.7617 14.3964 5.76171 14.3965 5.76172C14.3965 5.76173 14.3965 5.76173 14.3965 5.76173C15.1242 5.88406 15.4043 6.1803 15.4758 6.40444C15.5473 6.62892 15.4906 7.03472 14.9654 7.56067L14.9642 7.56188L12.9802 9.56206C12.7376 9.80655 12.5727 10.1369 12.4812 10.4591C12.3896 10.7817 12.3568 11.1483 12.4311 11.4825L12.4311 11.4825L12.4318 11.4858L12.9997 13.9614L8.93521 1.3775Z" stroke="#D1A60B" stroke-linecap="round" stroke-linejoin="round"/>
</svg>
