<svg width="112" height="112" viewBox="0 0 112 112" fill="none" xmlns="http://www.w3.org/2000/svg">
<g filter="url(#filter0_d_1256_995)">
<mask id="path-1-inside-1_1256_995" fill="white">
<path d="M92 50C92 69.8823 75.8823 86 56 86C36.1177 86 20 69.8823 20 50C20 30.1177 36.1177 14 56 14C75.8823 14 92 30.1177 92 50Z"/>
</mask>
<path d="M92 50C92 69.8823 75.8823 86 56 86C36.1177 86 20 69.8823 20 50C20 30.1177 36.1177 14 56 14C75.8823 14 92 30.1177 92 50Z" fill="white"/>
<path d="M90 50C90 68.7777 74.7777 84 56 84V88C76.9868 88 94 70.9868 94 50H90ZM56 84C37.2223 84 22 68.7777 22 50H18C18 70.9868 35.0132 88 56 88V84ZM22 50C22 31.2223 37.2223 16 56 16V12C35.0132 12 18 29.0132 18 50H22ZM56 16C74.7777 16 90 31.2223 90 50H94C94 29.0132 76.9868 12 56 12V16Z" fill="#5D8B2F" mask="url(#path-1-inside-1_1256_995)"/>
</g>
<path d="M70.5866 63.7701H68.6819C68.8592 62.763 68.691 61.761 68.1714 60.9448C66.7815 58.7606 64.179 59.0319 62.3377 59.0319C61.73 56.6458 59.4271 55.1415 57.0908 55.4945C56.7471 54.3101 56.8143 51.5905 57.6773 49.8394C60.3191 49.8283 64.8304 49.657 68.3991 46.0758C72.3218 42.139 71.3303 35.6695 71.2862 35.3964C71.2304 35.0493 70.963 34.7755 70.6186 34.7132C70.3637 34.6664 64.2946 33.6184 59.9431 38.0121C56.7067 41.2789 56.3656 46.9145 56.348 48.8308C56.2044 49.1046 56.0722 49.3784 55.9525 49.6522L55.2342 48.9071C55.189 47.3645 54.8332 42.9818 52.3015 40.3326C49.4743 37.3749 44.4984 37.91 44.2887 37.9325C43.9322 37.9734 43.6428 38.2413 43.5723 38.5947C43.5304 38.8062 42.5815 43.8169 45.675 46.9208C48.7101 49.9669 52.2277 50.125 54.1171 50.1331L55.3432 51.4048C55.1045 52.3386 54.9962 53.2868 55.0069 54.2641C54.3826 54.0426 53.7308 53.9129 53.0643 53.9129C50.1599 53.9129 47.586 56.1085 46.917 59.0319C45.8153 59.0319 43.309 58.8531 41.9767 60.947C41.449 61.7765 41.2797 62.7641 41.4622 63.7701H41.3925C40.2989 63.7701 40.2989 65.4284 41.3925 65.4284H70.5866C71.6802 65.4284 71.6802 63.7701 70.5866 63.7701ZM46.8428 45.7478C44.9435 43.8423 44.9876 40.8393 45.1106 39.5444C46.4058 39.5248 49.3718 39.663 51.1081 41.4794C52.4121 42.8436 53.1094 45.0071 53.4072 47.0122L51.136 44.6567C50.3777 43.8673 49.189 45.0219 49.9484 45.8098L52.4165 48.369C50.5198 48.1546 48.6065 47.5182 46.8428 45.7478ZM61.1145 39.1806C63.3751 36.8988 66.6452 36.0325 69.7215 36.2753C69.8496 37.8732 69.9124 42.2116 67.231 44.9032C64.512 47.6309 61.1586 48.086 58.671 48.1642C59.6456 46.7553 60.9918 45.2957 62.7641 43.693C63.5775 42.9571 62.4655 41.7248 61.658 42.4611C60.2894 43.6986 59.1539 44.8745 58.2256 46.0209C58.6005 43.4701 59.4804 40.8305 61.1145 39.1806ZM43.3681 61.8392C44.2215 60.4982 46.0356 60.6898 47.6106 60.6898C48.0307 60.6898 48.3836 60.3736 48.4314 59.955C48.7127 57.4963 50.7463 55.5708 53.0632 55.5708C54.2287 55.5708 55.3568 56.0676 56.2396 56.9693C56.681 57.4218 57.1011 57.1027 57.735 57.1027C59.3416 57.1027 60.6687 58.3221 60.8226 59.9395C60.863 60.3648 61.2192 60.6898 61.6451 60.6898C64.0773 60.6898 65.8983 60.4536 66.7785 61.8373C67.1245 62.3805 67.1828 63.0659 66.9816 63.7698H43.1658C42.9649 63.067 43.0229 62.3823 43.3681 61.8392Z" fill="#5D8B2F"/>
<defs>
<filter id="filter0_d_1256_995" x="0" y="0" width="112" height="112" filterUnits="userSpaceOnUse" color-interpolation-filters="sRGB">
<feFlood flood-opacity="0" result="BackgroundImageFix"/>
<feColorMatrix in="SourceAlpha" type="matrix" values="0 0 0 0 0 0 0 0 0 0 0 0 0 0 0 0 0 0 127 0" result="hardAlpha"/>
<feOffset dy="6"/>
<feGaussianBlur stdDeviation="10"/>
<feComposite in2="hardAlpha" operator="out"/>
<feColorMatrix type="matrix" values="0 0 0 0 0 0 0 0 0 0 0 0 0 0 0 0 0 0 0.15 0"/>
<feBlend mode="normal" in2="BackgroundImageFix" result="effect1_dropShadow_1256_995"/>
<feBlend mode="normal" in="SourceGraphic" in2="effect1_dropShadow_1256_995" result="shape"/>
</filter>
</defs>
</svg>
